<mxfile host="drawio-plugin" modified="2024-04-19T17:57:00.421Z" agent="5.0 (Windows NT 10.0; Win64; x64) AppleWebKit/537.36 (KHTML, like Gecko) Chrome/111.0.0.0 Safari/537.36" etag="8r8_IoTMBaWtLkdSAWj6" version="20.5.3" type="embed"><diagram id="8F0qCAfLKks02gZqbEuH" name="Page-1"><mxGraphModel dx="861" dy="542" grid="1" gridSize="10" guides="1" tooltips="1" connect="1" arrows="1" fold="1" page="1" pageScale="1" pageWidth="850" pageHeight="1100" math="0" shadow="0"><root><mxCell id="0"/><mxCell id="1" parent="0"/><mxCell id="2" value="Users&lt;br&gt;(pps_users)" style="rounded=0;whiteSpace=wrap;html=1;fillColor=#008a00;fontColor=#ffffff;strokeColor=#005700;" parent="1" vertex="1"><mxGeometry x="200" y="100" width="120" height="60" as="geometry"/></mxCell><mxCell id="3" value="Products&lt;br&gt;(pps_products)" style="rounded=0;whiteSpace=wrap;html=1;fillColor=#008a00;fontColor=#ffffff;strokeColor=#005700;" parent="1" vertex="1"><mxGeometry x="520" y="100" width="120" height="60" as="geometry"/></mxCell><mxCell id="4" value="Coupons&lt;br&gt;(pps_coupons)" style="rounded=0;whiteSpace=wrap;html=1;fillColor=#008a00;fontColor=#ffffff;strokeColor=#005700;" parent="1" vertex="1"><mxGeometry x="360" y="100" width="120" height="60" as="geometry"/></mxCell><mxCell id="5" value="Reviews&lt;br&gt;(pps_reviews)" style="rounded=0;whiteSpace=wrap;html=1;fillColor=#008a00;fontColor=#ffffff;strokeColor=#005700;" parent="1" vertex="1"><mxGeometry x="680" y="100" width="120" height="60" as="geometry"/></mxCell><mxCell id="6" value="Tickets&lt;br&gt;(pps_tickets)" style="rounded=0;whiteSpace=wrap;html=1;fillColor=#008a00;fontColor=#ffffff;strokeColor=#005700;" parent="1" vertex="1"><mxGeometry x="200" y="240" width="120" height="60" as="geometry"/></mxCell><mxCell id="7" value="TicketLogs&lt;br&gt;(pps_ticket_logs)" style="rounded=0;whiteSpace=wrap;html=1;" parent="1" vertex="1"><mxGeometry x="360" y="240" width="120" height="60" as="geometry"/></mxCell><mxCell id="8" value="LoginLogs&lt;br&gt;(pps_login_logs)" style="rounded=0;whiteSpace=wrap;html=1;" parent="1" vertex="1"><mxGeometry x="200" width="120" height="60" as="geometry"/></mxCell><mxCell id="9" value="RecoveryLogs&lt;br&gt;(pps_recover_logs)" style="rounded=0;whiteSpace=wrap;html=1;" parent="1" vertex="1"><mxGeometry x="40" width="120" height="60" as="geometry"/></mxCell><mxCell id="10" value="SupportLogs&lt;br&gt;(pps_support_logs)" style="rounded=0;whiteSpace=wrap;html=1;" parent="1" vertex="1"><mxGeometry x="360" y="360" width="120" height="60" as="geometry"/></mxCell><mxCell id="11" value="Orders&lt;br&gt;(pps_orders)" style="rounded=0;whiteSpace=wrap;html=1;" parent="1" vertex="1"><mxGeometry x="520" y="240" width="120" height="60" as="geometry"/></mxCell><mxCell id="12" value="OrderLogs&lt;br&gt;(pps_order_logs)" style="rounded=0;whiteSpace=wrap;html=1;" parent="1" vertex="1"><mxGeometry x="520" y="360" width="120" height="60" as="geometry"/></mxCell><mxCell id="13" value="Pemissions&lt;br&gt;(pps_permissions)" style="rounded=0;whiteSpace=wrap;html=1;" parent="1" vertex="1"><mxGeometry x="40" y="100" width="120" height="60" as="geometry"/></mxCell><mxCell id="14" value="PermissionsPerUser&lt;br&gt;(pps_permissions_per_user)" style="rounded=0;whiteSpace=wrap;html=1;" parent="1" vertex="1"><mxGeometry x="40" y="200" width="120" height="60" as="geometry"/></mxCell><mxCell id="15" value="Order details&lt;br&gt;(pps_order_details)" style="rounded=0;whiteSpace=wrap;html=1;" vertex="1" parent="1"><mxGeometry x="680" y="240" width="120" height="60" as="geometry"/></mxCell></root></mxGraphModel></diagram></mxfile>